<svg width="180" height="180" viewBox="0 0 180 180" fill="none" xmlns="http://www.w3.org/2000/svg">
<rect width="180" height="180" rx="36" fill="#FF3C00"/>
<path d="M50 78H120V118C120 129.046 111.046 138 100 138H70C58.9543 138 50 129.046 50 118V78Z" fill="white"/>
<path d="M120 84H130C138 84 144 90 144 98C144 106 138 112 130 112H120V84Z" stroke="white" stroke-width="9" fill="none"/>
<path d="M62 60C62 60 66 54 62 48" stroke="white" stroke-width="7" stroke-linecap="round" fill="none"/>
<path d="M78 60C78 60 82 54 78 48" stroke="white" stroke-width="7" stroke-linecap="round" fill="none"/>
<path d="M94 60C94 60 98 54 94 48" stroke="white" stroke-width="7" stroke-linecap="round" fill="none"/>
</svg>
